# xmcd
#
# Track frame offsets:
#	150
#	14823
#	31130
#	54664
#	78724
#	98792
#	122369
#	144941
#	164903
#	180882
#	193996
#
# Disc length: 2772 seconds
#
# Revision: 0
# Processed by: cddbd v1.5.1PL0 Copyright (c) Steve Scherf et al.
# Submitted via: dBpowerAMP V4.0
#
DISCID=930ad20b
DTITLE=Tres Hombres - Our Favorite Songs
DYEAR=1900
DGENRE=Blues
TTITLE0=I'm Ready - W.Dixon
TTITLE1=The Harder They Come - J.Cliff
TTITLE2=Umm - H.B. Hutcherson
TTITLE3=Same ols blues - D.Nix
TTITLE4=Love and happines - A.Green and M.Hodges
TTITLE5=Summertime - Gershwin and Heyward
TTITLE6=The hunter - Jackson and Jones and Wells and Crooper and Dunn
TTITLE7=Ain't funky now - J.Brown
TTITLE8=I'll go crazy - J.Brown
TTITLE9=Mo better Blues - B.Marsalis
TTITLE10=Waiting for the bus - B.Gibbons and D.Hill
EXTD=
EXTT0=
EXTT1=
EXTT2=
EXTT3=
EXTT4=
EXTT5=
EXTT6=
EXTT7=
EXTT8=
EXTT9=
EXTT10=
PLAYORDER=
